{
  "accessors": [
    {
      "bufferView": 2,
      "componentType": 5126,
      "count": 1963,
      "max": [
        3.924489974975586,
        7.815859794616699,
        0.6294900178909302
      ],
      "min": [
        -3.9526500701904297,
        -0.030239999294281006,
        -10.309000015258789
      ],
      "type": "VEC3"
    },
    {
      "bufferView": 2,
      "byteOffset": 23556,
      "componentType": 5126,
      "count": 1963,
      "max": [
        1.0,
        1.0,
        1.0
      ],
      "min": [
        -1.0,
        -1.0,
        -1.0
      ],
      "type": "VEC3"
    },
    {
      "bufferView": 1,
      "componentType": 5126,
      "count": 1963,
      "max": [
        0.9933599829673767,
        0.9918199777603149
      ],
      "min": [
        0.016540000215172768,
        0.007569999899715185
      ],
      "type": "VEC2"
    },
    {
      "bufferView": 0,
      "componentType": 5125,
      "count": 8424,
      "type": "SCALAR"
    }
  ],
  "asset": {
    "extras": {
      "author": "pfoche (https://sketchfab.com/pfoche)",
      "license": "CC-BY-4.0 (http://creativecommons.org/licenses/by/4.0/)",
      "source": "https://sketchfab.com/3d-models/ambulancia-4e8c796d0ace4f8297e8da0f6b3ceee9",
      "title": "Ambulancia"
    },
    "generator": "Sketchfab-15.25.0",
    "version": "2.0"
  },
  "bufferViews": [
    {
      "buffer": 0,
      "byteLength": 33696,
      "name": "floatBufferViews",
      "target": 34963
    },
    {
      "buffer": 0,
      "byteLength": 15704,
      "byteOffset": 33696,
      "byteStride": 8,
      "name": "floatBufferViews",
      "target": 34962
    },
    {
      "buffer": 0,
      "byteLength": 47112,
      "byteOffset": 49400,
      "byteStride": 12,
      "name": "floatBufferViews",
      "target": 34962
    }
  ],
  "buffers": [
    {
      "byteLength": 96512,
      "uri": "scene.bin"
    }
  ],
  "images": [
    {
      "uri": "textures/Material.001_baseColor.jpeg"
    }
  ],
  "materials": [
    {
      "doubleSided": true,
      "name": "Material.001",
      "pbrMetallicRoughness": {
        "baseColorFactor": [
          0.8000000119,
          0.8000000119,
          0.8000000119,
          1.0
        ],
        "baseColorTexture": {
          "index": 0
        },
        "metallicFactor": 0.0,
        "roughnessFactor": 0.4
      }
    }
  ],
  "meshes": [
    {
      "name": "Ambulancia_0",
      "primitives": [
        {
          "attributes": {
            "NORMAL": 1,
            "POSITION": 0,
            "TEXCOORD_0": 2
          },
          "indices": 3,
          "material": 0,
          "mode": 4
        }
      ]
    }
  ],
  "nodes": [
    {
      "children": [
        1
      ],
      "matrix": [
        1.0,
        0.0,
        0.0,
        0.0,
        0.0,
        2.220446049250313e-16,
        -1.0,
        0.0,
        0.0,
        1.0,
        2.220446049250313e-16,
        0.0,
        0.0,
        0.0,
        0.0,
        1.0
      ],
      "name": "Sketchfab_model"
    },
    {
      "children": [
        2,
        4,
        6,
        8,
        10
      ],
      "name": "Root"
    },
    {
      "children": [
        3
      ],
      "matrix": [
        1.0,
        0.0,
        0.0,
        0.0,
        0.0,
        -0.0,
        1.0,
        0.0,
        0.0,
        -1.0,
        -0.0,
        0.0,
        0.0,
        0.0,
        0.0,
        1.0
      ],
      "name": "Ambulancia"
    },
    {
      "mesh": 0,
      "name": "Ambulancia_0"
    },
    {
      "children": [
        5
      ],
      "matrix": [
        1.0,
        0.0,
        0.0,
        0.0,
        0.0,
        1.0,
        0.0,
        0.0,
        0.0,
        0.0,
        1.0,
        0.0,
        0.0,
        0.0,
        19.32568,
        1.0
      ],
      "name": "Sun"
    },
    {
      "name": "Sun"
    },
    {
      "children": [
        7
      ],
      "matrix": [
        1.0,
        0.0,
        0.0,
        0.0,
        0.0,
        1.0,
        0.0,
        0.0,
        0.0,
        0.0,
        1.0,
        0.0,
        -5.70812,
        4.57778,
        0.0,
        1.0
      ],
      "name": "Point"
    },
    {
      "name": "Point"
    },
    {
      "children": [
        9
      ],
      "matrix": [
        1.0,
        0.0,
        0.0,
        0.0,
        0.0,
        1.0,
        0.0,
        0.0,
        0.0,
        0.0,
        1.0,
        0.0,
        6.400790000000001,
        4.57778,
        0.0,
        1.0
      ],
      "name": "Point.001"
    },
    {
      "name": "Point.001"
    },
    {
      "children": [
        11
      ],
      "matrix": [
        1.0,
        0.0,
        0.0,
        0.0,
        0.0,
        1.0,
        0.0,
        0.0,
        0.0,
        0.0,
        1.0,
        0.0,
        -0.51581,
        13.103530000000001,
        0.0,
        1.0
      ],
      "name": "Point.002"
    },
    {
      "name": "Point.002"
    }
  ],
  "samplers": [
    {
      "magFilter": 9729,
      "minFilter": 9987,
      "wrapS": 10497,
      "wrapT": 10497
    }
  ],
  "scene": 0,
  "scenes": [
    {
      "name": "Sketchfab_Scene",
      "nodes": [
        0
      ]
    }
  ],
  "textures": [
    {
      "sampler": 0,
      "source": 0
    }
  ]
}
